<svg xmlns="http://www.w3.org/2000/svg" width="40" height="40" viewBox="0 0 40 40"><defs><style>.a{fill:#f7931a;}.b{fill:#fff;}</style></defs><g transform="translate(1621 -1431)"><path class="a" d="M329.006,342.347a20,20,0,1,1-14.565-24.24,20,20,0,0,1,14.565,24.24Z" transform="translate(-1910.604 1113.492)"/><path class="b" d="M324.262,338.841c.4-2.661-1.628-4.092-4.4-5.046l.9-3.6-2.195-.547-.875,3.51c-.577-.144-1.169-.279-1.758-.414l.881-3.533-2.193-.547-.9,3.6c-.478-.109-.946-.216-1.4-.329l0-.011-3.027-.756-.584,2.344s1.628.373,1.594.4a1.168,1.168,0,0,1,1.023,1.276l-1.024,4.107a1.817,1.817,0,0,1,.228.073l-.232-.057-1.435,5.753a.8.8,0,0,1-1.006.521c.022.032-1.6-.4-1.6-.4l-1.09,2.512,2.856.712c.531.133,1.052.272,1.565.4l-.908,3.646,2.192.547.9-3.608c.6.163,1.18.313,1.749.454l-.9,3.591,2.195.547.908-3.639c3.742.708,6.556.423,7.741-2.962.954-2.725-.048-4.3-2.016-5.322a3.5,3.5,0,0,0,2.8-3.222Zm-5.014,7.031c-.678,2.725-5.267,1.252-6.754.883l1.205-4.831C315.186,342.295,319.956,343.03,319.247,345.871Zm.679-7.07c-.619,2.479-4.438,1.219-5.677.911l1.093-4.381C316.581,335.64,320.571,336.216,319.926,338.8Z" transform="translate(-1916.443 1109.31)"/></g></svg>