<svg xmlns="http://www.w3.org/2000/svg" width="21.667" height="20.75" stroke="#000" viewBox="0 0 21.667 20.75"><defs><style>.a,.b,.c{fill:none;}.b,.c{;stroke-linecap:round;stroke-width:1.5px;}.b{stroke-linejoin:round;}.d{stroke:none;}</style></defs><g transform="translate(1245 -2086.25)"><path class="a" d="M13,0l4.333,8.667L13,17.333H4.333L0,8.667,4.333,0Z" transform="translate(-1225.444 2087.445) rotate(90)"/><g class="b" transform="translate(-1245 2090.333)"><circle class="d" cx="1.667" cy="1.667" r="1.667"/><circle class="a" cx="1.667" cy="1.667" r="0.917"/></g><path class="b" d="M3.961,16,0,8.079,4.04,0" transform="translate(-1226.087 2087) rotate(90)"/><path class="b" d="M10.964,0,7.083,7.762H0" transform="translate(-1235.571 2093.667) rotate(90)"/><path class="b" d="M10.964,7.762,7.083,0H0" transform="translate(-1224.988 2093.667) rotate(90)"/><path class="b" d="M8.75,0l2.917,5.833L8.75,11.667H2.917L0,5.833,2.917,0Z" transform="translate(-1228.333 2090.333) rotate(90)"/><g class="b" transform="translate(-1226.667 2090.333)"><circle class="d" cx="1.667" cy="1.667" r="1.667"/><circle class="a" cx="1.667" cy="1.667" r="0.917"/></g><g class="b" transform="translate(-1235.833 2103.667)"><circle class="d" cx="1.667" cy="1.667" r="1.667"/><circle class="a" cx="1.667" cy="1.667" r="0.917"/></g><path class="b" d="M5.833,0l5.833,2.917L5.833,5.833,0,2.917Z" transform="translate(-1240 2090.333)"/><path class="c" d="M-1203,2080.833V2075" transform="translate(-31.167 21.167)"/></g></svg>