<svg xmlns="http://www.w3.org/2000/svg" xmlns:xlink="http://www.w3.org/1999/xlink" width="40" height="40" viewBox="0 0 40 40"><defs><style>.a{fill:#fff;stroke:#707070;}.b{fill:#151b2f;}.c{clip-path:url(#a);}.d{fill:#151c2f;}.e{fill:#8a92b2;}.f{fill:#62688f;}.g{fill:#454a75;}</style><clipPath id="a"><circle class="a" cx="16" cy="16" r="16" transform="translate(-260 2481)"/></clipPath></defs><g transform="translate(-20 -373)"><circle class="b" cx="20" cy="20" r="20" transform="translate(20 373)"/><g class="c" transform="translate(284 -2104)"><g transform="translate(-260 2481)"><rect class="d" width="32" height="32"/><g transform="translate(7.003 1.345)"><path class="e" d="M429.2,80.7l-9,14.927,9-4.088Z" transform="translate(-420.2 -80.7)"/><path class="f" d="M429.2,731l-9,4.088,9,5.318Z" transform="translate(-420.2 -720.162)"/><path class="f" d="M969,95.627,960,80.7V91.538Z" transform="translate(-951.003 -80.7)"/><path class="g" d="M960,740.407l9-5.318L960,731Z" transform="translate(-951.003 -720.162)"/><path class="e" d="M420.2,1078.7l9,12.677v-7.362Z" transform="translate(-420.2 -1062.067)"/><path class="f" d="M960,1084.015v7.362l9-12.677Z" transform="translate(-951.003 -1062.067)"/></g></g></g></g></svg>