<svg xmlns="http://www.w3.org/2000/svg" width="22.559" height="20.75" stroke="#000" viewBox="0 0 22.559 20.75"><defs><style>.a,.b{fill:none;}.a{font-size:1px;font-family:Nunito-SemiBold, Nunito;font-weight:600;letter-spacing:0.003em;opacity:0;}.b{;stroke-linecap:round;stroke-linejoin:round;stroke-width:1.5px;}</style></defs><g transform="translate(-132.689 -726.25)"><text class="a" transform="translate(143.88 746)"><tspan x="-3.029" y="0">Expense plan</tspan></text><g transform="translate(133.75 727)"><g transform="translate(0 7.5)"><path class="b" d="M14.95,6.877a8.32,8.32,0,0,1-6.58,3.1A8.437,8.437,0,0,1,.093,2.857C.046,2.62,0,.513,0,0" transform="translate(1.924 0.172)"/><path class="b" d="M-248,27l-2-2-2,2" transform="translate(252 -25)"/></g><g transform="translate(2.489)"><path class="b" d="M1.075,3.1A8.32,8.32,0,0,1,7.654,0a8.437,8.437,0,0,1,8.277,7.117c.047.238.093,2.344.093,2.857"/><path class="b" d="M-252,25l2,2,2-2" transform="translate(265.948 -16)"/></g></g></g></svg>