<svg xmlns="http://www.w3.org/2000/svg" width="21.5" height="21.863" stroke="#000" viewBox="0 0 21.5 21.863"><defs><style>.a,.b{fill:none;;stroke-linecap:round;stroke-width:1.5px;}.a{stroke-linejoin:round;}</style></defs><g transform="translate(0.75 0.75)"><path class="a" d="M14.9,1.06A9.648,9.648,0,0,0,10.391,0,10.148,10.148,0,0,0,2.347,4.081" transform="translate(-0.391)"/><path class="a" d="M.2,13.056A9.59,9.59,0,0,1,0,11,10.186,10.186,0,0,1,1.342,5.991" transform="translate(0 -0.466)"/><path class="b" d="M19.072,2.291a9.8,9.8,0,0,1,4.107,8.091" transform="translate(-3.179 -0.341)"/><path class="b" d="M6.039,2.342A8.77,8.77,0,0,0,0,0" transform="translate(12.452 13.865) rotate(90)"/><path class="b" d="M3.261,1.312A12.258,12.258,0,0,0,0,0" transform="translate(14.229 16.597) rotate(90)"/><path class="b" d="M5.571,2.261A21.052,21.052,0,0,0,0,0" transform="translate(17.536 11.884) rotate(80)"/><path class="a" d="M9.57,9.229a10.494,10.494,0,0,0,.327-2.5A14.923,14.923,0,0,0,9.57,3.953,4.717,4.717,0,0,0,4.838,0,4.4,4.4,0,0,0,.183,3.626V7.388" transform="translate(5.17 5.57)"/><path class="a" d="M5.008,4.635c-.082-.679-.3-2.445-.328-2.715A2.26,2.26,0,0,0,2.378,0,2.35,2.35,0,0,0,.065,2.049" transform="translate(7.637 7.613)"/><path class="a" d="M15.014,7.234A7.371,7.371,0,0,0,7.514,0,7.49,7.49,0,0,0,.084,6.244" transform="translate(2.486 2.553)"/><path class="a" d="M7.373,2.744C6.462,1.411,3.913,0,1.009,0L0,.073" transform="translate(7.743 11.538) rotate(90)"/><path class="b" d="M2.4,1.892A6.543,6.543,0,0,0,0,0" transform="translate(4.881 14.693) rotate(82)"/><path class="a" d="M9.329,3.482C8.174,1.794,4.949.005,1.275,0L0,.091" transform="matrix(0.07, 0.998, -0.998, 0.07, 10.282, 10.451)"/><path class="a" d="M4.1,1.4A4.75,4.75,0,0,0,.56,0L0,.036" transform="matrix(0.07, 0.998, -0.998, 0.07, 2.454, 10.414)"/></g></svg>