<svg xmlns="http://www.w3.org/2000/svg" width="40" height="40" viewBox="0 0 40 40"><defs><style>.a{fill:#00915a;}.b{fill:#fff;}.c,.e{fill:none;}.c{stroke:#fff;stroke-linecap:round;stroke-linejoin:round;stroke-dasharray:3 4;}.d{stroke:none;}</style></defs><g transform="translate(-20 -372)"><circle class="a" cx="20" cy="20" r="20" transform="translate(20 372)"/><path class="b" d="M2.307-8.39l.868,1.864h.208V-8.39ZM.072-6.526-.808-8.39H-1.19v1.864ZM.593-5H-1.19v4.55H-4.039V-5H-5.9V-6.526h1.864V-8.39H-5.9V-9.9h1.864v-4.55H-.6L1.786-9.9h1.6v-4.55h2.86V-9.9H8.1V-8.39H6.244v1.864H8.1V-5H6.244v4.55H2.955Z" transform="translate(38.903 399.453)"/><g class="c" transform="translate(24 376)"><circle class="d" cx="16" cy="16" r="16"/><circle class="e" cx="16" cy="16" r="15.5"/></g></g></svg>