<svg xmlns="http://www.w3.org/2000/svg" width="17.469" height="17.502" viewBox="0 0 17.469 17.502"><defs><style>.a{fill:none;stroke:#5370e4;stroke-linecap:round;stroke-linejoin:round;stroke-width:1.5px;}</style></defs><path class="a" d="M18.08,13.744v2.409a1.606,1.606,0,0,1-1.75,1.606A15.889,15.889,0,0,1,9.4,15.293a15.656,15.656,0,0,1-4.817-4.817A15.889,15.889,0,0,1,2.118,3.515a1.606,1.606,0,0,1,1.6-1.75H6.125A1.606,1.606,0,0,1,7.731,3.145,10.309,10.309,0,0,0,8.293,5.4,1.606,1.606,0,0,1,7.931,7.1l-1.02,1.02a12.846,12.846,0,0,0,4.817,4.817l1.02-1.02a1.606,1.606,0,0,1,1.694-.361,10.309,10.309,0,0,0,2.256.562A1.606,1.606,0,0,1,18.08,13.744Z" transform="translate(-1.361 -1.014)"/></svg>