<svg xmlns="http://www.w3.org/2000/svg" width="20" height="20" viewBox="0 0 20 20"><defs><style>.a{fill:#5370e4;}</style></defs><g transform="translate(0 -0.332)"><path class="a" d="M77.289,76.447v5.424a.392.392,0,0,0,.392.392h5.424a.392.392,0,0,0,.392-.392V80.842a.392.392,0,1,0-.784,0v.636h-4.64v-4.64h4.64v.944a.392.392,0,1,0,.784,0V76.447a.392.392,0,0,0-.392-.392H77.681A.392.392,0,0,0,77.289,76.447Zm0,0" transform="translate(-74.874 -73.356)"/><path class="a" d="M138.435,136.8a.392.392,0,0,0-.392.392v1.627a.392.392,0,0,0,.392.392h1.627a.392.392,0,0,0,.392-.392V137.2a.392.392,0,0,0-.392-.392Zm1.235,1.627h-.843v-.843h.843Zm0,0" transform="translate(-133.729 -132.204)"/><path class="a" d="M83.105,364.344H77.681a.392.392,0,0,0-.392.392v5.424a.392.392,0,0,0,.392.392h5.424a.392.392,0,0,0,.392-.392v-5.424A.392.392,0,0,0,83.105,364.344Zm-.392,5.424h-4.64v-4.64h4.64Zm0,0" transform="translate(-74.874 -352.62)"/><path class="a" d="M366.841,82.263h5.424a.392.392,0,0,0,.392-.392V76.447a.392.392,0,0,0-.392-.392h-5.424a.392.392,0,0,0-.392.392v5.424A.392.392,0,0,0,366.841,82.263Zm.392-5.424h4.64v4.64h-4.64Zm0,0" transform="translate(-354.998 -73.356)"/><path class="a" d="M372.658,370.16v-5.424a.392.392,0,0,0-.392-.392h-5.424a.392.392,0,0,0-.392.392v5.424a.392.392,0,0,0,.392.392h5.424A.392.392,0,0,0,372.658,370.16Zm-.784-.392h-4.64v-4.64h4.64Zm0,0" transform="translate(-354.998 -352.62)"/><path class="a" d="M141.578,82.741a.393.393,0,0,0,0-.785H134.7v-6.9a.392.392,0,1,0-.784,0v6.9h-5.205a.393.393,0,0,0,0,.785h5.205v6.808a.392.392,0,1,0,.784,0V82.741Zm0,0" transform="translate(-124.31 -72.009)"/><path class="a" d="M138.435,428.439h1.627a.392.392,0,0,0,.392-.392v-1.627a.392.392,0,0,0-.392-.392h-1.627a.392.392,0,0,0-.392.392v1.627A.392.392,0,0,0,138.435,428.439Zm.392-1.627h.843v.843h-.843Zm0,0" transform="translate(-133.729 -412.38)"/><path class="a" d="M429.215,136.8h-1.627a.392.392,0,0,0-.392.392v1.627a.392.392,0,0,0,.392.392h1.627a.392.392,0,0,0,.392-.392V137.2A.392.392,0,0,0,429.215,136.8Zm-.392,1.627h-.843v-.843h.843Zm0,0" transform="translate(-413.845 -132.204)"/><path class="a" d="M427.588,428.439h1.627a.392.392,0,0,0,.392-.392v-1.627a.392.392,0,0,0-.392-.392h-1.627a.392.392,0,0,0-.392.392v1.627A.392.392,0,0,0,427.588,428.439Zm.392-1.627h.843v.843h-.843Zm0,0" transform="translate(-413.845 -412.38)"/><path class="a" d="M77.275,307.467l-.021,0a.392.392,0,1,0,.18.763l.021,0a.392.392,0,0,0-.18-.763Zm0,0" transform="translate(-74.547 -297.519)"/><path class="a" d="M250.845,167.466l-.021.005a.392.392,0,0,0,.089.774.387.387,0,0,0,.09-.011l.021,0a.392.392,0,0,0-.179-.764Zm0,0" transform="translate(-242.692 -161.896)"/><path class="a" d="M.392,3.544a.392.392,0,0,0,.392-.392V1.116H2.746a.392.392,0,1,0,0-.784H.392A.392.392,0,0,0,0,.724V3.152A.392.392,0,0,0,.392,3.544Zm0,0"/><path class="a" d="M542.317.332h-2.354a.392.392,0,1,0,0,.784h1.962V3.152a.392.392,0,0,0,.784,0V.724A.392.392,0,0,0,542.317.332Zm0,0" transform="translate(-522.709 0)"/><path class="a" d="M2.746,539.432H.784V537.4a.392.392,0,0,0-.784,0v2.428a.392.392,0,0,0,.392.392H2.746a.392.392,0,1,0,0-.784Zm0,0" transform="translate(0 -519.884)"/><path class="a" d="M542.317,537a.392.392,0,0,0-.392.392v2.036h-1.962a.392.392,0,1,0,0,.784h2.354a.392.392,0,0,0,.392-.392V537.4A.392.392,0,0,0,542.317,537Zm0,0" transform="translate(-522.709 -519.884)"/></g></svg>