<svg xmlns="http://www.w3.org/2000/svg" width="21.5" height="21.5" stroke="#000" viewBox="0 0 21.5 21.5"><defs><style>.a{fill:none;;stroke-linecap:round;stroke-linejoin:round;stroke-width:1.5px;}</style></defs><g transform="translate(-2.456 -2.25)"><path class="a" d="M5.286,13.783a7.716,7.716,0,0,1,0-1.567L3.206,9.925,5.48,6.075l3.072.614A8,8,0,0,1,9.941,5.9L10.932,3H15.48l.991,2.9a8,8,0,0,1,1.389.785l3.072-.614,2.274,3.849-2.08,2.292a7.715,7.715,0,0,1,0,1.567l2.08,2.292-2.274,3.849L17.86,19.31a8,8,0,0,1-1.389.785L15.48,23H10.932l-.991-2.9a8,8,0,0,1-1.389-.785l-3.072.614L3.206,16.076Z" transform="translate(0 0)"/><circle class="a" cx="3" cy="3" r="3" transform="translate(10.206 10)"/></g></svg>